<?xml version="1.0" encoding="UTF-8" standalone="no"?>
<svg
   xmlns:dc="http://purl.org/dc/elements/1.1/"
   xmlns:cc="http://creativecommons.org/ns#"
   xmlns:rdf="http://www.w3.org/1999/02/22-rdf-syntax-ns#"
   xmlns:svg="http://www.w3.org/2000/svg"
   xmlns="http://www.w3.org/2000/svg"
   xmlns:sodipodi="http://sodipodi.sourceforge.net/DTD/sodipodi-0.dtd"
   xmlns:inkscape="http://www.inkscape.org/namespaces/inkscape"
   width="19.998972mm"
   height="19.998972mm"
   viewBox="0 0 19.998972 19.998972"
   version="1.1"
   id="svg8"
   inkscape:version="1.0 (4035a4fb49, 2020-05-01)"
   sodipodi:docname="drawing2.svg">
  <defs
     id="defs2">
    <clipPath
       id="clipPath26"
       clipPathUnits="userSpaceOnUse">
      <path
         id="path24"
         d="M 0,56.69 H 56.69 V 0 H 0 Z" />
    </clipPath>
    <clipPath
       id="clipPath34"
       clipPathUnits="userSpaceOnUse">
      <path
         id="path32"
         d="M 0,56.69 H 56.69 V 0 H 0 Z" />
    </clipPath>
  </defs>
  <sodipodi:namedview
     id="base"
     pagecolor="#ffffff"
     bordercolor="#666666"
     borderopacity="1.0"
     inkscape:pageopacity="0.0"
     inkscape:pageshadow="2"
     inkscape:zoom="5.6"
     inkscape:cx="45.473554"
     inkscape:cy="33.539507"
     inkscape:document-units="mm"
     inkscape:current-layer="g22"
     inkscape:document-rotation="0"
     showgrid="false"
     inkscape:window-width="1274"
     inkscape:window-height="1040"
     inkscape:window-x="234"
     inkscape:window-y="0"
     inkscape:window-maximized="0" />
  <metadata
     id="metadata5">
    <rdf:RDF>
      <cc:Work
         rdf:about="">
        <dc:format>image/svg+xml</dc:format>
        <dc:type
           rdf:resource="http://purl.org/dc/dcmitype/StillImage" />
        <dc:title></dc:title>
      </cc:Work>
    </rdf:RDF>
  </metadata>
  <g
     transform="translate(-96.589804,-101.12552)"
     inkscape:label="Layer 1"
     inkscape:groupmode="layer"
     id="layer1">
    <g
       transform="matrix(0.35277777,0,0,-0.35277777,96.589804,121.12449)"
       clip-path="url(#clipPath26)"
       id="g22">
      <g
         id="g28">
        <g
           id="g30" />
        <g
           id="g40">
          <g
             id="g38"
             opacity="0"
             clip-path="url(#clipPath34)">
            <path
               id="path36"
               style="fill:#111212;fill-opacity:1;fill-rule:nonzero;stroke:none"
               d="M 56.69,0 H 0 v 56.69 h 56.69 z" />
          </g>
        </g>
      </g>
      <g
         style="fill:#ffffff"
         transform="translate(34.5457,19.411)"
         id="g42">
        <path
           id="path44"
           style="fill:#ffffff;fill-opacity:1;fill-rule:nonzero;stroke:none"
           d="m 0,0 c 1.173,0 2.204,0.207 3.092,0.622 0.887,0.415 1.64,0.983 2.259,1.705 0.618,0.721 1.085,1.551 1.403,2.488 0.316,0.937 0.475,1.943 0.475,3.018 0,1.044 -0.159,2.035 -0.475,2.972 -0.318,0.937 -0.785,1.758 -1.403,2.465 -0.619,0.706 -1.38,1.267 -2.283,1.682 -0.904,0.415 -1.927,0.622 -3.068,0.622 -1.11,0 -2.101,-0.215 -2.973,-0.645 C -3.845,14.498 -4.582,13.922 -5.184,13.201 -5.787,12.479 -6.247,11.658 -6.563,10.736 -6.88,9.814 -7.039,8.847 -7.039,7.833 -7.039,6.82 -6.88,5.844 -6.563,4.907 -6.247,3.97 -5.795,3.133 -5.208,2.396 -4.621,1.659 -3.892,1.075 -3.02,0.645 -2.148,0.215 -1.141,0 0,0 M 12.555,-4.109 H 8.05 v 3.727 L 7.95,0.027 C 7.048,-1.267 5.922,-2.31 4.57,-3.102 3.219,-3.893 1.692,-4.29 -0.01,-4.29 c -1.803,0 -3.397,0.332 -4.781,0.995 -1.386,0.662 -2.554,1.559 -3.505,2.691 -0.951,1.132 -1.677,2.441 -2.178,3.929 -0.5,1.487 -0.751,3.039 -0.751,4.656 0,1.552 0.258,3.047 0.776,4.486 0.517,1.439 1.252,2.7 2.203,3.783 0.951,1.084 2.111,1.957 3.48,2.62 1.368,0.662 2.903,0.994 4.605,0.994 1.735,0 3.287,-0.405 4.656,-1.213 1.368,-0.808 2.52,-1.891 3.455,-3.249 l 0.1,0.401 1.799,2.49 2.706,1.492 z" />
      </g>
      <g
         style="fill:#ffffff"
         transform="translate(50.2467,41.616)"
         id="g46">
        <path
           id="path48"
           style="fill:#ffffff;fill-opacity:1;fill-rule:nonzero;stroke:none"
           d="m 0,0 c -2.751,0.863 -6.553,0.4 -8.504,-2.921 -0.548,-0.934 -0.958,-1.922 -1.297,-2.951 -0.092,0.046 -0.159,0.063 -0.16,0.083 -0.063,1.741 0.16,3.42 0.983,4.995 1.056,2.018 2.726,3.158 4.93,3.585 1.811,0.35 3.646,0.349 5.479,0.395 C 2.348,3.209 3.264,3.242 4.175,3.352 4.768,3.424 5.35,3.537 5.909,3.766 6.427,3.978 6.497,3.909 6.414,3.333 6.257,2.243 6.041,1.162 5.749,0.102 5.267,-1.649 4.673,-3.359 3.671,-4.897 1.617,-8.051 -1.214,-9.166 -4.912,-8.604 c -0.842,0.128 -1.653,0.376 -2.457,0.653 -0.463,0.159 -0.646,0.45 -0.622,0.933 0.103,2.072 1.008,3.733 2.576,5.052 0.901,0.757 1.895,1.358 3.052,1.64 C -1.615,-0.144 -0.829,-0.239 0,0" />
      </g>
      <g
         style="fill:#ffffff"
         transform="translate(41.6879,42.8966)"
         id="g50">
        <path
           id="path52"
           style="fill:#ffffff;fill-opacity:1;fill-rule:nonzero;stroke:none"
           d="M 0,0 C 0.208,1.003 0.937,1.711 1.349,2.595 1.201,2.689 1.067,2.603 0.983,2.533 0.048,1.756 -0.804,0.909 -1.405,-0.172 -2.201,-1.606 -2.38,-3.119 -2.047,-4.697 c 0.127,-0.599 0.055,-1.187 0.057,-1.78 10e-4,-0.11 -0.002,-0.254 -0.137,-0.272 -0.065,-0.008 -0.159,0.083 -0.216,0.149 -0.42,0.491 -0.757,1.039 -1.035,1.618 -1.239,2.588 -1.043,5.049 0.642,7.395 1.142,1.59 2.543,2.946 3.862,4.378 0.914,0.994 1.872,1.955 2.378,3.253 0.134,0.342 0.295,0.345 0.537,0.015 C 4.461,9.486 4.865,8.9 5.251,8.304 6.3,6.68 7.213,4.989 7.76,3.122 7.954,2.458 7.939,2.431 7.239,2.393 5.444,2.294 3.679,2.073 2.027,1.288 1.301,0.943 0.661,0.477 0,0" />
      </g>
      <g
         style="fill:#ffffff"
         transform="translate(25.8017,18.3875)"
         id="g54">
        <path
           id="path56"
           style="fill:#ffffff;fill-opacity:1;fill-rule:nonzero;stroke:none"
           d="m 0,0 c -0.999,1.188 -1.761,2.563 -2.286,4.125 -0.526,1.562 -0.789,3.191 -0.789,4.889 0,1.63 0.271,3.2 0.815,4.711 0.401,1.117 0.929,2.13 1.58,3.043 -0.254,0.698 -0.573,1.343 -0.975,1.92 -0.644,0.925 -1.512,1.66 -2.602,2.206 -1.091,0.545 -2.446,0.818 -4.064,0.818 -1.257,0 -2.446,-0.232 -3.569,-0.694 -1.124,-0.463 -2.05,-1.24 -2.776,-2.33 h -0.099 v 2.231 h -6.94 V -3.419 h 6.94 V 7.937 c 0,0.727 0.024,1.529 0.074,2.404 0.05,0.876 0.206,1.693 0.471,2.454 0.264,0.76 0.677,1.396 1.239,1.908 0.562,0.512 1.355,0.769 2.379,0.769 0.992,0 1.743,-0.216 2.256,-0.645 0.512,-0.43 0.875,-0.966 1.09,-1.611 0.215,-0.644 0.339,-1.363 0.372,-2.156 0.033,-0.793 0.05,-1.553 0.05,-2.28 V -3.419 h 6.939 v 3.307 C 0.071,-0.073 0.033,-0.039 0,0" />
      </g>
    </g>
  </g>
</svg>
